<svg xmlns="http://www.w3.org/2000/svg" xmlns:xlink="http://www.w3.org/1999/xlink" viewBox="0 0 32 32"><defs><path id="a" d="M.151.563h27.182V24H.151z"/><path id="c" d="M0 24h32V.383H0z"/></defs><g fill="none" fill-rule="evenodd" transform="translate(0 4)"><path fill="#B6BB2D" d="M13.888 13.243l-1.863-2.71-.613 3.25v.002L8.99 11.532l.022 3.313-2.806-1.694.72 3.232-3.09-1.068 1.366 3.01-3.242-.398 1.953 2.647-3.25.279 2.454 2.196L0 24h30.334l-3.116-.951 2.454-2.124-3.25-.316 1.952-2.664-3.24.388.001-.002 1.338-3.02-3.095 1.084.746-3.276-2.805 1.712.203-3.395-2.621 1.971-.563-2.877-1.88 2.707-1.293-3.044z"/><g transform="translate(4.667)"><mask id="b" fill="#fff"><use xlink:href="#a"/></mask><path fill="#13110C" d="M21.01.84L17.8.6l.68 4.47a55.97 55.97 0 01-4.68 2.6l-.07.05.01-.13c0-.17-.07-.28-.14-.44l-.15-.21c-.06-.06-.14-.14-.3-.15h-.04a3.4 3.4 0 00-.25-3.01c.8-.6 1.2-1.3 1.04-1.64a9 9 0 00-1.34-.25c-.36-.22-1.04-1.17-2.3-1.17a6.2 6.2 0 00-4.55 2.6 3.25 3.25 0 00-.44 1.6c0 .3.04.48.15.71.22.53.61.9 1.37.9h.06c.02 0 .05.07.08.07.2.58.56 1.12 1.02 1.5l-.03.09c-.05.16-.21.24-.25.55 0 .14.08.27.16.36.04.02.18.34.28.61l.01.05a4.2 4.2 0 01-1.75.38c-.74 0-1.4-.2-1.77-.5a1.04 1.04 0 00-.66-.23c-.34 0-.64.14-.87.3-.3.2-.6.38-.86.57-.24.19-.47.33-.5.67l.01.11c.12.38.53.72 1.07 1.04a4 4 0 001.85.6h.01c.53 0 1-.09 1.43-.16a10.9 10.9 0 00-1.33 2.34l-.5-.2c-.47-.19-.94-.37-1.31-.5-.19-.07-.35-.2-.47-.24-.14-.04-.2-.15-.3-.15h-.14l-.07.18c-.14.2-.25.51-.34.82l-1.05-.2-.07.21a7.81 7.81 0 00-.34 2.5c0 1.97.45 4.14.93 5.23l.02.04.03.03c.1.1.14.08.2.1.4.1 1.58.14 2.72.17l2.03.04c.5.59 1.01 1 1.5 1.09v-.04h7.25c.3-2.18.72-6.6.72-11.26 0-.63-.07-1.13-.2-1.56-.2-1.04 1.8-2.29 3.52-3.44l.02.16-.47 6.1 4.5-.28 4 .33.41-6.35-.44-7.1-3.13.32-2.75-.04z" mask="url(#b)"/></g><path fill="#FFF" d="M17.71 7.86c-.22.22-.7.58-1.62 1.12l-.24.14c-.59.2-1.18.41-1.77.7a3.5 3.5 0 01-.7.08 4.96 4.96 0 01-.2-.47c-.1-.25-.18-.5-.34-.67v-.02l.12-.2c.48-.07 2.3-.37 4.8-1.23a.82.82 0 01.14.26v.02c0 .02 0 .07-.19.27zm-6.2-1.67c-.64-.03-.73-.2-.99-.68-.06-.14-.1-.35-.1-.59 0-.42.13-.93.37-1.34a5.78 5.78 0 014.12-2.36c1.06 0 1.55.8 2.12 1.14l.03.01c-1.1.38-2 1.13-2.8 1.85-1.1 1.04-2.04 2-2.76 1.97zM9.3 12.13c-.51 0-1.13-.22-1.61-.5a2.42 2.42 0 01-.83-.67c.04-.13.6-.5 1.14-.83.18-.13.4-.22.6-.22.13 0 .25.04.35.12.5.4 1.25.61 2.08.61.67 0 1.34-.15 1.96-.43a.49.49 0 00.11.13c-.68.42-1.3.93-1.84 1.53-.55.15-1.19.25-1.94.26H9.3zm8.33-6.22c0 .14-.21.43-.55.49-.11.02-.23.03-.34.03-.35-.01-.53-.1-.54-.36 0-.62.4-1.02.77-1.02h.1c.32.06.56.44.56.86zm13.49 7.56l-3.53-.29-3.96.25.43-5.59-1.02-6.7 3.26.26 2.19-.02 2.6-.27.41 6.55-.38 5.8zM8.5 22.37a49.83 49.83 0 01-2.23-.13l-.12-.01c-.42-1.03-.84-3.1-.84-4.93 0-.78.08-1.52.25-2.11l3.45.75c-.2.58-.36 1.16-.5 1.76-.24 1.05-.18 1.88.64 3.12l.31.45.18.24.69.89c-.61 0-1.22-.02-1.83-.04zm3.39-1.07c-.7-1.83-.62-2.28-.62-2.65 0-.7.43-1.6 1.17-2.53l3.63-.32a42.7 42.7 0 00-.58 5.43c0 .34.01.64.06.88l-3.26.2-.34-.84-.06-.17z"/><path fill="#FFF" d="M6.94 14.47c.33.1 1.13.41 1.87.7l.41.16-.05.13-2.4-.53c.04-.15.1-.3.17-.46m9.74 6.3c-.08.43-.2.79-.34 1.02-.1.16-.2.25-.3.28a4.22 4.22 0 01-.06-.84c0-1.97.63-5.66.63-5.66l.06-.33-3.77.33.1-.1 3.8-.65c.04.5.11 1.6.11 2.83 0 1.08-.05 2.24-.23 3.11"/><mask id="d" fill="#fff"><use xlink:href="#c"/></mask><path fill="#13110C" d="M27.7 2.73h2.48v-.26H27.7v.26zM11.88 21.3l.06.17.2-.02-.2-1.82-.25.03.19 1.64zm-5.33-.21l-.32-1.9.24-.03.32 1.88-.24.05zm.59-1.78l.3 1.88.24-.04-.3-1.88-.24.04zm1.19 1.98l-.29-1.86.25-.04.28 1.87-.24.03zm4.46.15l-.19-1.8.25-.03.19 1.8-.25.03zm.72-1.83l.18 1.8.24-.03-.17-1.8-.25.03zm.92-.03l.15 1.79.25-.03-.15-1.78-.25.02zm-8.12-3.12l.25.02-.18 1.9-.25-.03.18-1.89zm.94.12l.24.02-.18 1.87-.25-.02.19-1.87zm.92.12l.25.02-.18 1.86-.25-.03.18-1.85zm3.8 2.05l-.24-.02.15-1.8.25.03-.15 1.79zm.95-.04l-.25-.02.14-1.78.25.02-.14 1.78zm.93-.05l-.24-.02.14-1.76.25.02-.15 1.76zm.94-.04l-.25-.02.14-1.74.24.01-.13 1.75zm10.06-8.58h2.49V9.8h-2.5v.25zM24.94 9h2.5v-.25h-2.5V9zm.1-1.05h2.48V7.7h-2.49v.25zm-.36 4.21h2.5v-.25h-2.5v.25zm.05-6.3h2.49V5.6h-2.5v.25zm-.36-2.08h2.49v-.25h-2.5v.25zm.54 3.12h2.5v-.25h-2.5v.25zm3.2.02h2.49v-.25h-2.5v.25zm-3.92-4.19h2.49v-.25h-2.5v.25zm3.9 6.29h2.49v-.26h-2.5v.26zm.07-1.05h2.5V7.7h-2.5v.25zm-.15 2.1h2.5V9.8H28v.25zm-.16 2.09h2.5v-.25h-2.5v.25zm.05-7.33h2.5v-.25h-2.5v.25zm.03 6.28h2.5v-.25h-2.5v.25zm-.13-7.33h2.49v-.25h-2.5v.25zm.2 2.1h2.5V5.6H28v.25zM24.55 4.8h2.49v-.25h-2.5v.25zm.22 6.29h2.49v-.25h-2.5v.25z" mask="url(#d)"/><path fill="#13110C" d="M9.14 20.82l.09.58.24-.04-.01-.09-.32-.45zM28.43.88c-.15-.36-.6-.5-1.32-.5-.68 0-1.23.2-1.43.46l.62.56c.47.34 1.01.87 1.4 1.14l.68-.06c.09-.21.1-.57.1-1.1l-.05-.5z" mask="url(#d)"/></g></svg>